# xmcd CD database file
#
# Track frame offsets:
#	182
#	14745
#	28960
#	44775
#	59907
#	75325
#	91955
#	106705
#	123205
#	136415
#	156935
#
# Disc length: 2306 seconds
#
# Revision: 4
# Processed by: cddbd v1.5.2PL0 Copyright (c) Steve Scherf et al.
# Submitted via: CDex 1.72
#
DISCID=9509000b
DTITLE=Bogguss, Suzy (USA-92-Voices In The Wind-cty) - Voices In The Wind
DYEAR=1992
DGENRE=Country
TTITLE0=Heartache
TTITLE1=Drive South
TTITLE2=Don't Wonna
TTITLE3=How Come You Go To Her
TTITLE4=Other Side Of The Hill
TTITLE5=In The Day
TTITLE6=Love Goes Without Saying
TTITLE7=Eat At Joe's
TTITLE8=Lovin' A Hurricaine
TTITLE9=Letting Go
TTITLE10=Cold Day In July
EXTD=YEAR: 1992
EXTT0=
EXTT1=
EXTT2=
EXTT3=
EXTT4=
EXTT5=
EXTT6=
EXTT7=
EXTT8=
EXTT9=
EXTT10=
PLAYORDER=
